# xmcd
#
# Track frame offsets: 
#        150
#        12677
#        21704
#        35275
#        45953
#        55552
#        66584
#        80352
#        93717
#
# Disc length: 1383 seconds
#
# Revision: 0
# Processed by: cddbd v1.4PL0 Copyright (c) Steve Scherf et al.
# Submitted via: ExactAudioCopy v0.95a3
#
DISCID=74056509
DTITLE=Willie Nelson - Colombus Stockade Blues and Other Country Favorit
DTITLE=es
DYEAR=1976
DGENRE=Country
TTITLE0=Seasons of My Heart
TTITLE1=Colombus Stockade Blues
TTITLE2=I Love You Because
TTITLE3=Heartaches by the Number
TTITLE4=San Antonio Rose
TTITLE5=I'd Trade All My Tomorrows (For Just One Yesterday)
TTITLE6=Don't You Ever Get Tired (Of Hurting Me)
TTITLE7=Fraulein
TTITLE8=Go On Home
EXTD=
EXTT0=
EXTT1=
EXTT2=
EXTT3=
EXTT4=
EXTT5=
EXTT6=
EXTT7=
EXTT8=
PLAYORDER=
